<svg xmlns="http://www.w3.org/2000/svg" viewBox="0 0 379.28 841.89"><defs><style>.cls-2{fill:#fdeb01}</style></defs><g id="Layer_2" data-name="Layer 2"><g id="Layer_1-2" data-name="Layer 1"><path class="cls-2" d="M337.78 580.2a107.76 107.76 0 0 1-9.55 16.45q1 .38 2 .66l.74.2a17.21 17.21 0 0 0 10.13-.4 7.64 7.64 0 0 0 4.93-4.84l.06-.21c.57-2.38-.34-5-2.26-7.31a17.51 17.51 0 0 0-6.05-4.55ZM193.64 701.47c4.71-1.29 9.83-2.53 15.22-3.68s10.58-2.09 15.41-2.83l-.67-3.15a5.83 5.83 0 0 0-6.87-4.47l-19.3 4.1a5.83 5.83 0 0 0-4.46 6.88ZM269 703a4.33 4.33 0 0 0-5.11-3.32l-9.89 2.1 1.79 8.42 9.89-2.1A4.33 4.33 0 0 0 269 703Zm38.86-253.28a36.62 36.62 0 0 0 6.54.54 28.65 28.65 0 0 0 14-3.44 20.63 20.63 0 0 0 6.19-5.56 27.38 27.38 0 0 0 4.2-8.36 31 31 0 0 0 .59-17.15 21 21 0 0 0-6-10.3 16.39 16.39 0 0 0-10.56-4.23 26.17 26.17 0 0 0-12 2.8 39.47 39.47 0 0 1 5.31 28.32 38.9 38.9 0 0 1-8.27 17.38Zm-39.64-27.21a7.1 7.1 0 1 0 5.11 6.13 8.1 8.1 0 0 1-1.09-.49 7.89 7.89 0 0 1-4.02-5.64Zm-6.5-1.82a7.07 7.07 0 0 0 6.39.19 7.93 7.93 0 0 1 1-3.46 7.82 7.82 0 0 1 3.12-3.15 7.09 7.09 0 1 0-10.47 6.42Zm18.08-6.44a7.61 7.61 0 0 1 1.76 1.29 7.08 7.08 0 1 0-7.39-2 7.81 7.81 0 0 1 5.63.71Zm2.37 11.93a7.94 7.94 0 0 1-7.26 2.86 7.08 7.08 0 1 0 7.26-2.86Z"/><path class="cls-2" d="M282.48 417a7.91 7.91 0 0 1 .37 8 7.1 7.1 0 1 0-.37-8Z"/><path class="cls-2" d="M39 0S19 44 13 105s64.66 124.57 90.59 248.62C116 413 95.15 536.76 96 570c1 39 36.37 107 31.37 149C121.49 768.42 0 841.89 0 841.89h379.28V0Zm224.18 221.12c1.93-13.66 27.33-64.37 23.71-68.45-2.62-2.95-3.49-3.67-4.65-7.43a19.65 19.65 0 0 1-.9-7.75c.74-8.16 8.66-22.93 19.39-23.58a3.38 3.38 0 0 1 2.13.69c8.46 6.58 6.76 23.18 2.83 30.33a19.9 19.9 0 0 1-5.09 5.93c-3.06 2.47-4.19 2.57-8 3.55-5.28 1.36-12.56 57.62-18.63 70-4.44 9.1-12.56 9.24-10.79-3.29Zm16.62 159.39.27-1.34a5.61 5.61 0 1 1 2.63.51l-.26 1.31c10.24 2.1 18 6.76 18.44 10.88L260.14 384c1.86-3.54 10.03-5 19.66-3.49Zm-34.2 1.94 13.48 2.62h-.05l42.46 8.25a44.13 44.13 0 0 1 6.05 6.1 32 32 0 0 1 15.46-3.71 21.77 21.77 0 0 1 14 5.63 26.59 26.59 0 0 1 7.65 13 36.67 36.67 0 0 1-.66 20.22 33.06 33.06 0 0 1-5.06 10 26 26 0 0 1-7.85 7 34.21 34.21 0 0 1-16.68 4.17 43.37 43.37 0 0 1-11.11-1.39 42.91 42.91 0 0 1-16.63 9l-40.18-7.81c-12.08-9.37-18.61-24.47-15.63-39.81a39.45 39.45 0 0 1 15.59-24.33c.87-4.49-1.53-6.29-5.53-7.92Zm-55.51 316.48a8.78 8.78 0 0 1 6.73-10.37l19.29-4.1a8.77 8.77 0 0 1 10.37 6.73l.71 3.34c10.33-1.46 18.72-1.9 23.27-1.2l2.83-.6a1.55 1.55 0 1 1 .65 3l-87.07 18.51a1.56 1.56 0 1 1-.65-3l2.83-.6c3.88-2.48 11.72-5.49 21.75-8.37Zm-8.9-631.87 10.94 31.76 1.79-.62L183 66.35c-1.07-3.12-1-3.46-1-6.73 2.25 2.67 2.42 2.63 3.56 5.95l10.94 31.76 1.75-.6-11-31.86c-1.08-3.11-1-3.45-1-6.72 2.25 2.66 2.42 2.63 3.56 5.95l10.94 31.76 1.79-.62-11-31.85c-1.07-3.12-1.21-3.37-1.24-6.64 2.25 2.66 2.18 2.71 3.32 6L205 94.37l1.39 4c.81 2.35-.88 4.51-2.34 6.28-4.49 5.43 31.39 72.16 34.36 88.9 2.57 14.54-7.18 17.86-14.09 4.85-8-15-20.78-89.69-27.66-91.21-2.24-.49-4.9-1.15-5.71-3.51l-1.39-4-10.49-32c-1.07-3.12-1.22-3.37-1.24-6.64 2.29 2.65 2.22 2.7 3.36 6.02ZM150.76 319.3c-4-.62-7.82-3.45-10.81-6.38a60.66 60.66 0 0 1-9.38-11.43c-3-4.9-4.48-10.36-3.15-17.81 1.14-6.41 4.27-12.48 9.17-13.7 3.58-.89 9.66.8 14-.3a14.45 14.45 0 0 0 1.48-.43l-10.32-11.85 4.1-2.87a48.87 48.87 0 0 1 6.62 14.59c3.88-1.47 7.9-4.69 11-5.35 4.94-1 10.41 3 14.24 8.29 4.46 6.12 5.52 11.68 5 17.39a60.37 60.37 0 0 1-3.42 14.38c-1.4 3.95-3.63 8.18-6.91 10.48-5.06 3.54-7.34.33-10.91 1-2.54.5-3.83 3.11-7.35 3.92a9.48 9.48 0 0 1-3.36.07Zm120.06 388.54a7.23 7.23 0 0 1-4.56 3.15l-9.9 2.1 6.83 32.14a7.42 7.42 0 0 1-5.7 8.77l-71.2 15.13a6.37 6.37 0 0 1-7.54-4.89l-7.05-33.15-9.9 2.1a7.26 7.26 0 0 1-8.59-5.58 7.26 7.26 0 0 1 1-5.45 7.18 7.18 0 0 1 4.56-3.14l9.9-2.11-.28-1.29 84.66-18 .28 1.29 9.89-2.11a7.28 7.28 0 0 1 8.6 5.58 7.25 7.25 0 0 1-1 5.46ZM351.3 593.3c-.05.2-.08.33-.1.4-1.09 3.9-4.1 6.8-8.16 8.38a22.59 22.59 0 0 1-13.3.63l-.93-.24a25.52 25.52 0 0 1-3.85-1.4A134 134 0 0 1 307 620l-29-13.54c.79-23.47 5.61-42.63 15.29-57.32l48.06 22.41c-.45 1.25-.94 2.5-1.44 3.74a23.19 23.19 0 0 1 8 6c3.02 3.62 4.37 7.9 3.39 12.01Z"/><path class="cls-2" d="M159.4 721.89a4.37 4.37 0 0 0-2.71 1.87 4.29 4.29 0 0 0-.6 3.24 4.31 4.31 0 0 0 5.1 3.31l9.9-2.1-1.79-8.42Z"/></g></g></svg>