<svg xmlns="http://www.w3.org/2000/svg" viewBox="0 0 625.2 484.18"><defs><style>.cls-1{fill:#e6e6e6;}.cls-2{fill:#f77d8e;}.cls-3{fill:#3f3d56;}.cls-4{isolation:isolate;opacity:0.2;}.cls-5{fill:#ff6584;}.cls-6{fill:#f9a825;}.cls-7{fill:#00bf71;}</style></defs><g id="Layer_2" data-name="Layer 2"><g id="Layer_1-2" data-name="Layer 1"><polygon class="cls-1" points="625.2 307.63 623.23 386.45 620.78 484.18 537.66 484.18 534.8 369.68 533.25 307.63 625.2 307.63"/><rect class="cls-2" x="572.97" y="265.7" width="11.77" height="155.95"/><path class="cls-3" d="M619.31,367l-2.22,112H541.32L538.71,347.8a51.61,51.61,0,0,1,40.83,5.61C592.2,360.9,606.42,364.93,619.31,367Z"/><rect class="cls-1" x="549.28" y="379.63" width="10.8" height="10.8"/><rect class="cls-1" x="556.63" y="357.56" width="10.8" height="10.8"/><rect class="cls-1" x="577.67" y="368.56" width="10.8" height="10.8" transform="translate(-64.63 619.52) rotate(-53.44)"/><rect class="cls-1" x="597.18" y="387.7" width="10.8" height="10.8" transform="translate(-72.11 642.93) rotate(-53.44)"/><rect class="cls-1" x="564.08" y="398.73" width="10.8" height="10.8" transform="translate(-94.36 620.8) rotate(-53.44)"/><circle class="cls-3" cx="602.39" cy="351.04" r="2.21"/><circle class="cls-3" cx="557.52" cy="336.32" r="2.21"/><circle class="cls-3" cx="595.04" cy="320.87" r="2.21"/><circle class="cls-2" cx="241.75" cy="241.75" r="241.75"/><path class="cls-4" d="M241.75,418.21a176.45,176.45,0,1,1,124.78-51.68A176.45,176.45,0,0,1,241.75,418.21Zm0-342c-91.29,0-165.57,74.28-165.57,165.57s74.28,165.58,165.57,165.58,165.58-74.28,165.58-165.58S333.05,76.18,241.75,76.18Z"/><circle class="cls-3" cx="241.75" cy="241.75" r="171.02"/><path class="cls-5" d="M114.57,173.37a21.7,21.7,0,1,1,38.66-19.74l0,0,48.32,94.88a21.7,21.7,0,1,1-38.65,19.76l0-.06Z"/><path class="cls-4" d="M120,184l-2.23-4.37c11.13-8.65,24.2-15,38.68-19.7l2.23,4.38C143,167.52,129.63,173.56,120,184Z"/><path class="cls-4" d="M130.37,204.39,128.14,200c11.13-8.65,24.2-15,38.68-19.7l2.23,4.38C153.37,188,140,194,130.37,204.39Z"/><path class="cls-4" d="M140.78,224.83l-2.23-4.38c11.12-8.65,24.19-15,38.68-19.7l2.23,4.38C163.78,208.39,150.45,214.43,140.78,224.83Z"/><path class="cls-4" d="M151.18,245.26,149,240.88c11.13-8.65,24.2-15,38.68-19.7l2.23,4.38C174.19,228.83,160.85,234.87,151.18,245.26Z"/><path class="cls-4" d="M161.59,265.7l-2.23-4.38c11.13-8.65,24.2-15,38.68-19.7l2.23,4.38C184.59,249.26,171.26,255.3,161.59,265.7Z"/><path class="cls-5" d="M78.32,208.89A21.71,21.71,0,0,1,117,189.16l0,0,48.31,94.88a21.7,21.7,0,0,1-38.68,19.7Z"/><path class="cls-4" d="M83.71,219.47l-2.23-4.38c11.13-8.64,24.2-15,38.69-19.69l2.23,4.38C106.72,203,93.38,209.08,83.71,219.47Z"/><path class="cls-4" d="M94.12,239.91l-2.23-4.38c11.13-8.65,24.2-15,38.68-19.7l2.23,4.38C117.13,223.47,103.79,229.52,94.12,239.91Z"/><path class="cls-4" d="M104.53,260.34,102.3,256c11.13-8.65,24.2-15,38.68-19.7l2.23,4.38C127.53,243.91,114.2,250,104.53,260.34Z"/><path class="cls-4" d="M114.93,280.78l-2.23-4.38c11.13-8.65,24.2-15,38.69-19.7l2.23,4.38C137.94,264.35,124.6,270.39,114.93,280.78Z"/><path class="cls-4" d="M125.34,301.21l-2.23-4.37c11.13-8.65,24.2-15,38.68-19.7l2.23,4.38C148.35,284.78,135,290.82,125.34,301.21Z"/><path class="cls-1" d="M356,247.2h.16A25.92,25.92,0,0,0,380.42,231a84.49,84.49,0,0,0,5.92-31.69c-.27-45.92-37.62-83.58-83.53-84.21a84.75,84.75,0,0,0-35.28,162.32A25.69,25.69,0,0,0,296,272.09,84.45,84.45,0,0,1,356,247.2Z"/><circle class="cls-6" cx="312.49" cy="193.56" r="27.98"/><circle class="cls-3" cx="251.67" cy="187.12" r="3.3"/><circle class="cls-3" cx="142.84" cy="190.22" r="3.3"/><circle class="cls-3" cx="269.24" cy="152.95" r="3.3"/><circle class="cls-3" cx="269.15" cy="247.97" r="3.3"/><circle class="cls-3" cx="334.45" cy="146.14" r="3.3"/><circle class="cls-3" cx="121.45" cy="236.31" r="3.3"/><circle class="cls-3" cx="145.55" cy="283.73" r="3.3"/><circle class="cls-5" cx="296.95" cy="289.95" r="12.44"/><path class="cls-4" d="M306.27,290.73a9.33,9.33,0,0,1-18.65,0"/><path class="cls-4" d="M287.62,289.17a9.33,9.33,0,0,1,18.65,0"/><ellipse class="cls-5" cx="292.28" cy="285.67" rx="0.78" ry="1.17"/><ellipse class="cls-5" cx="296.95" cy="284.12" rx="0.78" ry="1.17"/><ellipse class="cls-5" cx="296.95" cy="294.22" rx="0.78" ry="1.17"/><ellipse class="cls-5" cx="301.61" cy="288.01" rx="0.78" ry="1.17"/><ellipse class="cls-5" cx="300.83" cy="296.56" rx="0.78" ry="1.17"/><ellipse class="cls-5" cx="291.5" cy="292.67" rx="0.78" ry="1.17"/><circle class="cls-5" cx="321.82" cy="256.52" r="12.44"/><path class="cls-4" d="M331.15,257.3a9.33,9.33,0,0,1-18.66,0"/><path class="cls-4" d="M312.49,255.75a9.33,9.33,0,0,1,18.66,0"/><ellipse class="cls-5" cx="317.16" cy="252.25" rx="0.78" ry="1.17"/><ellipse class="cls-5" cx="321.82" cy="250.69" rx="0.78" ry="1.17"/><ellipse class="cls-5" cx="321.82" cy="260.8" rx="0.78" ry="1.17"/><ellipse class="cls-5" cx="326.48" cy="254.58" rx="0.78" ry="1.17"/><ellipse class="cls-5" cx="325.71" cy="263.13" rx="0.78" ry="1.17"/><ellipse class="cls-5" cx="316.38" cy="259.24" rx="0.78" ry="1.17"/><circle class="cls-2" cx="346.7" cy="273.63" r="12.44"/><path class="cls-4" d="M356,274.4a9.33,9.33,0,0,1-18.65,0"/><path class="cls-4" d="M337.37,272.85a9.33,9.33,0,0,1,18.65,0"/><ellipse class="cls-2" cx="342.03" cy="269.35" rx="0.78" ry="1.17"/><ellipse class="cls-2" cx="346.7" cy="267.8" rx="0.78" ry="1.17"/><ellipse class="cls-2" cx="346.7" cy="277.9" rx="0.78" ry="1.17"/><ellipse class="cls-2" cx="351.36" cy="271.68" rx="0.78" ry="1.17"/><ellipse class="cls-2" cx="350.58" cy="280.23" rx="0.78" ry="1.17"/><ellipse class="cls-2" cx="341.25" cy="276.35" rx="0.78" ry="1.17"/><circle class="cls-2" cx="284.51" cy="275.18" r="12.44"/><path class="cls-4" d="M293.84,276a9.33,9.33,0,0,1-18.66,0"/><path class="cls-4" d="M275.18,274.4a9.33,9.33,0,0,1,18.66,0"/><ellipse class="cls-2" cx="279.84" cy="270.9" rx="0.78" ry="1.17"/><ellipse class="cls-2" cx="284.51" cy="269.35" rx="0.78" ry="1.17"/><ellipse class="cls-2" cx="284.51" cy="279.46" rx="0.78" ry="1.17"/><ellipse class="cls-2" cx="289.17" cy="273.24" rx="0.78" ry="1.17"/><ellipse class="cls-2" cx="288.39" cy="281.79" rx="0.78" ry="1.17"/><ellipse class="cls-2" cx="279.07" cy="277.9" rx="0.78" ry="1.17"/><circle class="cls-2" cx="312.49" cy="280.62" r="12.44"/><path class="cls-4" d="M321.82,281.4a9.33,9.33,0,1,1-18.66,0v0"/><path class="cls-4" d="M303.16,279.84a9.33,9.33,0,0,1,18.66,0v0"/><ellipse class="cls-2" cx="307.83" cy="276.35" rx="0.78" ry="1.17"/><ellipse class="cls-2" cx="312.49" cy="274.79" rx="0.78" ry="1.17"/><ellipse class="cls-2" cx="312.49" cy="284.9" rx="0.78" ry="1.17"/><ellipse class="cls-2" cx="317.16" cy="278.68" rx="0.78" ry="1.17"/><ellipse class="cls-2" cx="316.38" cy="287.23" rx="0.78" ry="1.17"/><ellipse class="cls-2" cx="307.05" cy="283.34" rx="0.78" ry="1.17"/><circle class="cls-5" cx="331.93" cy="293.84" r="12.44"/><path class="cls-4" d="M341.25,294.61a9.33,9.33,0,1,1-18.65,0"/><path class="cls-4" d="M322.6,293.06a9.33,9.33,0,1,1,18.65,0h0"/><ellipse class="cls-5" cx="327.26" cy="289.56" rx="0.78" ry="1.17"/><ellipse class="cls-5" cx="331.93" cy="288.01" rx="0.78" ry="1.17"/><ellipse class="cls-5" cx="331.93" cy="298.11" rx="0.78" ry="1.17"/><ellipse class="cls-5" cx="336.59" cy="291.89" rx="0.78" ry="1.17"/><ellipse class="cls-5" cx="335.81" cy="300.44" rx="0.78" ry="1.17"/><ellipse class="cls-5" cx="326.48" cy="296.56" rx="0.78" ry="1.17"/><circle class="cls-3" cx="171.98" cy="246.42" r="3.3"/><polygon class="cls-6" points="261.59 366.08 182.42 344.12 185.45 332.86 264.62 354.81 261.59 366.08"/><path class="cls-6" d="M250,362.31a217.83,217.83,0,0,1-82.07,0V350.64a251.15,251.15,0,0,0,82.07,0Z"/><path class="cls-6" d="M258.42,327.28a218.3,218.3,0,0,1-82.08,0V315.6a250.66,250.66,0,0,0,82.08,0Z"/><path class="cls-6" d="M286.8,341.29a218.24,218.24,0,0,1-82.07,0V329.62a251.15,251.15,0,0,0,82.07,0Z"/><path class="cls-6" d="M293.71,354.53a218.3,218.3,0,0,1-82.08,0V342.85a251.21,251.21,0,0,0,82.08,0Z"/><polygon class="cls-6" points="317.78 371.82 236.8 385.43 234.92 373.9 315.9 360.3 317.78 371.82"/><path class="cls-6" d="M305.68,373.32a220,220,0,0,1-74.58,34.79l-4.8-10.62a252.82,252.82,0,0,0,74.58-34.78Z"/><path class="cls-6" d="M298.93,337.91a220,220,0,0,1-74.58,34.79l-4.8-10.62a252.71,252.71,0,0,0,74.58-34.78Z"/><path class="cls-6" d="M330.49,338.62a220,220,0,0,1-74.58,34.78l-4.81-10.61A252.87,252.87,0,0,0,325.68,328Z"/><path class="cls-6" d="M342.21,347.72a220.08,220.08,0,0,1-74.58,34.78l-4.81-10.61a253.21,253.21,0,0,0,74.58-34.78Z"/><rect class="cls-7" x="240.2" y="324.93" width="3.89" height="3.89"/><rect class="cls-7" x="251.86" y="392.56" width="3.89" height="3.89"/><rect class="cls-7" x="189.67" y="324.93" width="3.89" height="3.89"/><rect class="cls-7" x="279.84" y="373.13" width="3.89" height="3.89"/><rect class="cls-7" x="282.18" y="350.58" width="3.89" height="3.89"/><rect class="cls-7" x="217.27" y="336.98" width="3.11" height="5.44" transform="translate(-185.14 330.06) rotate(-55.84)"/><rect class="cls-7" x="263.13" y="345.53" width="3.11" height="5.44" transform="translate(-172.1 371.76) rotate(-55.84)"/><rect class="cls-7" x="207.16" y="360.3" width="3.11" height="5.44" transform="translate(-208.87 331.92) rotate(-55.84)"/><rect class="cls-7" x="237.87" y="358.36" width="5.44" height="3.11" transform="translate(-192.32 356.93) rotate(-55.84)"/><rect class="cls-7" x="258.86" y="363.8" width="5.44" height="3.11" transform="translate(-187.62 376.69) rotate(-55.84)"/><rect class="cls-7" x="314.83" y="345.14" width="5.44" height="3.11" transform="matrix(0.56, -0.83, 0.83, 0.56, -147.63, 414.82)"/></g></g></svg>